<svg width="533" height="152" viewBox="0 0 533 152" fill="none" xmlns="http://www.w3.org/2000/svg">
<path fill-rule="evenodd" clip-rule="evenodd" d="M86.4066 82.8166L58.3619 76L56 85.7171L84.0448 92.5337L86.4066 82.8166ZM127.872 103.186L156.107 110.049L158.468 100.332L130.234 93.4693L127.872 103.186Z" fill="#3A3A3A"/>
<path fill-rule="evenodd" clip-rule="evenodd" d="M233.176 82.779L206 89.4055L208.369 99.1209L235.545 92.4944L233.176 82.779ZM284.993 80.4369L315.526 72.9919L313.157 63.2765L282.624 70.7215L284.993 80.4369Z" fill="#3A3A3A"/>
<path fill-rule="evenodd" clip-rule="evenodd" d="M406.376 55.0489L377.383 51L376 60.9039L404.993 64.9528L406.376 55.0489ZM452.134 71.5361L485.237 76.1588L486.62 66.2549L453.517 61.6321L452.134 71.5361Z" fill="#3A3A3A"/>
<path d="M7.96103 83.0027C3.99057 68.1848 12.8084 52.9036 27.6195 48.935C42.4306 44.9664 57.7087 53.7953 61.6781 68.6093C65.6475 83.4232 56.8307 98.7083 42.0196 102.677L38.2779 88.7128C45.3924 86.8065 49.6276 79.4669 47.7204 72.3492C45.8132 65.2315 38.4756 60.9928 31.3612 62.8991C24.2468 64.8054 20.0115 72.1451 21.9187 79.2628C22.6403 81.9559 24.1484 84.3142 26.2845 86.0809L17.0678 97.2098C12.6139 93.5241 9.46304 88.6083 7.96103 83.0027Z" fill="#476D56"/>
<path d="M378.645 74.3432C376.396 78.2387 373.538 81.6869 370.151 84.5965L360.741 73.6308C362.887 71.7886 364.7 69.5971 366.129 67.1217C373.056 55.1241 368.935 39.7287 356.943 32.8051C344.951 25.8814 329.557 30.0099 322.63 42.0076C315.709 54.0037 319.83 69.3991 331.823 76.3227C336.953 79.285 342.989 80.3419 348.811 79.2914L351.362 93.5177C342.185 95.1687 332.678 93.51 324.594 88.8426C305.701 77.9349 299.209 53.6825 310.122 34.7811C321.035 15.8796 345.284 9.37595 364.177 20.2837C383.069 31.1914 389.558 55.4417 378.645 74.3432Z" fill="#476D56"/>
<path d="M168.803 136.453C153.142 128.223 147.095 108.796 155.32 93.1429C163.546 77.4899 182.976 71.4513 198.636 79.6808C214.297 87.9103 220.344 107.337 212.119 122.99L199.321 116.265C203.84 107.666 200.518 96.9933 191.914 92.4722C183.311 87.951 172.637 91.2684 168.118 99.8679C163.599 108.467 166.921 119.14 175.524 123.661C178.468 125.208 181.763 125.89 185.055 125.638L186.167 140.046C180.157 140.507 174.155 139.266 168.803 136.453Z" fill="#476D56"/>
<path d="M489.649 103.372C479.36 98.3513 472.966 88.1248 472.966 76.6845C472.966 60.3147 486.287 47 502.665 47C519.042 47 532.363 60.3147 532.363 76.6845C532.363 88.0298 526.047 98.2192 515.878 103.277L509.439 90.3377C514.66 87.7408 517.906 82.5099 517.906 76.6845C517.906 68.2828 511.07 61.45 502.665 61.45C494.259 61.45 487.423 68.2828 487.423 76.6845C487.423 82.5595 490.707 87.8069 495.99 90.3873L489.649 103.372Z" fill="#476D56"/>
<rect x="414.435" y="70.864" width="36" height="8" transform="rotate(-37.05 414.435 70.864)" fill="#545454"/>
<rect x="423.559" y="46.4352" width="36" height="8" transform="rotate(52.95 423.559 46.4352)" fill="#545454"/>
<rect x="246.125" y="95.1769" width="36" height="8" transform="rotate(-60 246.125 95.1769)" fill="#545454"/>
<rect x="245" y="69.1244" width="36" height="8" transform="rotate(30 245 69.1244)" fill="#545454"/>
<rect x="89" y="99.1243" width="36" height="8" transform="rotate(-30 89 99.1243)" fill="#545454"/>
<rect x="101.053" y="76" width="36" height="8" transform="rotate(60 101.053 76)" fill="#545454"/>
</svg>
