<?xml version="1.0" standalone="no"?>
<!DOCTYPE svg PUBLIC "-//W3C//DTD SVG 20010904//EN"
 "http://www.w3.org/TR/2001/REC-SVG-20010904/DTD/svg10.dtd">
<svg version="1.0" xmlns="http://www.w3.org/2000/svg"
 width="804.000000pt" height="804.000000pt" viewBox="0 0 804.000000 804.000000"
 preserveAspectRatio="xMidYMid meet">
<metadata>
Created by potrace 1.14, written by Peter Selinger 2001-2017
</metadata>
<g transform="translate(0.000000,804.000000) scale(0.100000,-0.100000)"
fill="#000000" stroke="none">
<path d="M4979 8036 c-2 -2 -23 -6 -46 -9 -59 -9 -89 -16 -163 -40 -36 -12
-67 -21 -70 -22 -12 -1 -210 -105 -220 -115 -3 -3 -30 -24 -61 -47 -47 -36
-160 -150 -194 -195 -5 -7 -22 -29 -37 -49 -28 -38 -110 -192 -123 -230 -4
-13 -9 -28 -11 -34 -15 -43 -46 -169 -51 -210 -9 -66 -8 -266 1 -333 6 -45 5
-53 -11 -59 -10 -3 -47 -23 -83 -43 -36 -20 -92 -52 -125 -70 -121 -67 -321
-178 -357 -198 -21 -12 -68 -38 -105 -58 -37 -21 -85 -48 -105 -61 -21 -13
-44 -23 -53 -23 -8 0 -15 -4 -15 -8 0 -8 -63 -42 -78 -42 -4 0 -20 12 -37 26
-73 63 -263 165 -370 198 -33 10 -71 22 -85 26 -23 8 -57 15 -130 27 -30 5
-141 13 -190 15 -42 1 -175 -10 -210 -17 -14 -3 -35 -7 -48 -10 -214 -40 -444
-158 -616 -315 -21 -19 -67 -69 -103 -110 -84 -98 -83 -97 -83 -110 0 -5 -4
-10 -8 -10 -5 0 -14 -10 -20 -22 -6 -13 -26 -50 -45 -83 -58 -105 -111 -255
-132 -375 -32 -183 -24 -396 21 -560 75 -269 222 -495 436 -669 91 -73 252
-169 313 -187 43 -12 135 -51 131 -55 -3 -3 -8 -43 -11 -90 -11 -187 -15 -247
-20 -309 -5 -63 -8 -107 -20 -310 -3 -52 -7 -96 -9 -97 -1 -2 -25 -7 -52 -13
-73 -14 -85 -17 -134 -30 -70 -19 -164 -52 -177 -63 -7 -5 -13 -7 -13 -4 0 7
-172 -80 -230 -116 -70 -42 -182 -129 -246 -190 -36 -34 -70 -63 -75 -65 -5
-2 -9 -8 -9 -13 0 -5 -8 -17 -17 -27 -81 -84 -187 -241 -246 -364 -107 -223
-150 -419 -151 -683 -1 -191 10 -274 55 -430 39 -131 31 -108 71 -202 6 -16
12 -30 13 -33 18 -52 103 -193 177 -292 l50 -68 86 73 c48 39 96 80 107 90 11
10 51 44 89 75 39 31 86 72 105 89 20 18 39 33 44 33 14 0 7 26 -15 51 -26 28
-33 39 -82 124 -61 106 -110 257 -121 375 -35 345 98 670 360 886 56 46 195
137 195 128 0 -4 6 -2 13 3 23 18 157 65 227 79 124 26 306 24 423 -5 95 -22
220 -69 225 -83 2 -4 10 -8 18 -8 22 0 154 -92 222 -155 33 -30 79 -81 103
-112 24 -32 46 -60 49 -63 12 -12 71 -125 93 -180 87 -210 97 -469 26 -685
-100 -303 -332 -538 -634 -643 -33 -12 -75 -24 -94 -27 -19 -3 -37 -8 -41 -10
-4 -2 -34 -6 -66 -9 -154 -12 -257 -6 -354 21 -79 22 -111 27 -108 17 2 -9
-20 -81 -31 -99 -3 -5 -6 -12 -6 -15 -2 -10 -16 -55 -25 -75 -11 -27 -22 -58
-26 -70 -1 -5 -23 -68 -48 -140 -25 -71 -43 -132 -38 -137 12 -12 192 -56 292
-71 93 -14 385 -16 440 -3 13 3 41 8 62 11 21 3 73 15 115 26 43 12 83 22 88
24 66 16 255 103 345 159 147 91 237 168 380 326 90 99 234 343 270 455 7 22
16 45 20 50 8 10 23 73 19 77 -1 2 3 13 9 25 7 12 15 39 18 60 3 21 8 41 10
44 2 4 6 28 9 55 6 50 15 66 37 70 12 1 120 13 178 19 104 10 231 25 255 30
11 2 26 4 33 4 7 1 11 4 8 9 -2 4 -7 39 -10 77 -3 39 -8 86 -10 105 -3 19 -8
64 -11 100 -4 36 -9 72 -10 81 -2 9 -6 47 -9 85 -10 112 -9 109 -47 108 -30 0
-106 -7 -205 -18 -63 -7 -150 -17 -184 -21 -19 -3 -40 -1 -46 3 -6 4 -18 34
-28 67 -9 33 -19 65 -20 70 -19 64 -154 329 -176 345 -4 3 -16 19 -26 35 -47
77 -192 232 -289 312 -68 55 -197 143 -212 143 -6 0 -13 4 -15 9 -5 15 -187
95 -283 126 -151 47 -144 43 -139 73 2 15 6 61 8 102 12 175 16 238 21 291 3
31 7 94 10 140 15 246 14 242 36 245 5 1 10 2 12 3 1 2 13 4 27 7 14 2 36 7
50 11 14 3 27 7 30 8 84 20 320 130 320 149 0 11 -88 158 -110 183 -5 7 -10
15 -10 18 0 3 -18 33 -40 65 -22 32 -40 64 -40 69 0 6 -4 11 -10 11 -5 0 -10
4 -10 9 0 5 -18 37 -40 70 l-41 61 -42 -23 c-95 -53 -228 -84 -347 -81 -92 3
-149 13 -215 38 -89 35 -105 42 -105 49 0 4 -5 7 -11 7 -18 0 -96 58 -149 111
-140 140 -212 321 -205 514 2 50 6 101 9 115 3 14 8 35 10 46 10 51 63 164
104 222 45 65 77 97 181 185 12 9 28 17 36 17 8 0 15 3 15 8 0 4 12 12 27 19
91 39 123 52 123 47 0 -2 8 0 19 5 19 11 121 24 181 24 43 0 151 -13 162 -19
4 -3 16 -7 25 -9 45 -9 136 -49 190 -84 70 -45 179 -153 210 -208 74 -129 120
-276 115 -368 -1 -20 4 -20 266 -18 147 1 277 2 290 2 22 1 22 3 17 88 -6 104
-10 126 -39 243 -16 63 -38 126 -57 163 -12 23 -7 31 33 51 18 9 47 25 63 35
39 23 113 64 195 109 36 19 81 44 100 55 68 38 209 116 394 218 l50 28 41 -43
c49 -51 166 -143 218 -171 20 -11 37 -23 37 -27 0 -5 6 -8 13 -8 6 0 35 -11
62 -25 28 -13 58 -25 67 -25 9 0 19 -4 22 -9 6 -10 155 -46 231 -57 94 -12
244 -8 350 12 86 15 226 63 279 95 16 10 33 16 38 13 4 -3 8 0 8 5 0 6 5 11
11 11 6 0 21 8 34 18 12 9 32 23 43 31 l21 14 -20 26 c-27 34 -179 248 -249
350 -59 86 -72 97 -92 78 -42 -41 -198 -85 -293 -81 -87 2 -115 8 -185 36
-204 81 -329 260 -335 481 -4 134 26 233 102 334 97 129 250 209 410 214 90 4
234 -33 277 -70 10 -9 21 -15 25 -13 13 5 123 -102 161 -159 23 -32 38 -59 34
-59 -3 0 -1 -6 5 -14 16 -20 40 -106 44 -160 2 -25 6 -49 9 -51 4 -4 466 -9
555 -6 20 1 21 5 17 66 -17 279 -129 521 -334 725 -53 52 -113 104 -133 115
-20 11 -37 23 -37 27 0 5 -6 8 -14 8 -8 0 -16 4 -18 8 -4 11 -162 86 -223 105
-115 37 -194 50 -331 53 -78 2 -143 1 -145 0z"/>
<path d="M6297 3164 c-1 -1 -29 -5 -62 -8 -108 -11 -245 -48 -341 -92 -33 -15
-62 -26 -66 -26 -5 1 -8 -2 -8 -8 0 -5 -5 -10 -11 -10 -7 0 -50 -25 -97 -56
-103 -69 -279 -241 -314 -308 -6 -11 -14 -23 -18 -26 -4 -3 -15 -21 -25 -40
-9 -19 -23 -42 -30 -50 -17 -21 -85 -188 -85 -209 0 -10 -3 -21 -7 -25 -4 -3
-8 -12 -9 -19 -1 -7 -9 -41 -16 -77 l-14 -65 -59 -6 c-88 -10 -186 -21 -215
-24 -14 -2 -55 -6 -92 -10 -37 -4 -75 -8 -85 -10 -10 -2 -26 -4 -36 -4 -13 -1
-16 -7 -13 -28 5 -26 15 -111 21 -178 3 -36 15 -138 20 -180 2 -16 7 -64 11
-105 6 -69 17 -95 35 -85 3 3 31 7 60 10 30 3 70 7 89 10 71 9 136 16 190 20
30 3 74 7 98 10 30 4 42 2 42 -6 0 -17 66 -153 99 -204 50 -79 116 -161 175
-219 68 -65 197 -166 214 -166 5 0 12 -3 14 -7 2 -5 22 -18 46 -31 l43 -23 25
53 c14 29 29 60 34 68 36 58 190 394 183 400 -4 3 -33 24 -63 45 -85 59 -155
138 -197 223 -49 97 -66 165 -68 267 -4 234 117 440 325 552 30 17 57 30 60
31 3 0 31 7 62 17 135 39 308 21 436 -44 127 -65 268 -227 298 -341 2 -8 10
-37 18 -65 17 -62 18 -194 2 -271 -14 -65 -54 -155 -97 -218 -34 -51 -121
-133 -177 -166 -23 -14 -42 -29 -42 -34 0 -5 57 -123 126 -262 119 -239 128
-253 146 -241 11 7 28 17 37 22 124 74 161 104 266 211 81 83 148 168 168 214
7 14 14 27 17 30 18 15 96 204 106 255 2 11 8 38 14 60 19 76 25 140 24 280
-1 173 -27 305 -90 450 -10 22 -17 43 -16 48 1 4 -3 7 -8 7 -6 0 -10 5 -10 12
0 14 -78 140 -120 193 -30 38 -145 159 -172 180 -7 6 -31 24 -53 40 -22 17
-42 32 -45 35 -9 9 -64 40 -140 79 -116 59 -234 96 -380 116 -42 6 -218 13
-223 9z"/>
</g>
</svg>
