<svg width="178" height="201" viewBox="0 0 178 201" fill="none" xmlns="http://www.w3.org/2000/svg">
<g clip-path="url(#clip0_653:561)">
<path d="M73.395 166.828L71.8254 152.464L90.3342 150.441L91.9038 164.805L73.395 166.828ZM107.389 163.108L105.819 148.745L124.696 146.68L126.265 161.044L107.389 163.108ZM48.422 129.448L33.9984 128.457L36.2784 95.362L50.7021 96.3528L48.422 129.448ZM67.8602 61.5076L60.8383 48.8742L94.2953 30.2955L101.317 42.929L67.8602 61.5076Z" fill="#95E5B2"/>
<path d="M116.108 55.612C100.768 55.612 88.2896 43.1396 88.2896 27.806C88.2896 12.4724 100.772 0 116.108 0C131.445 0 143.927 12.4724 143.927 27.806H129.471C129.471 20.4406 123.477 14.45 116.108 14.45C108.74 14.45 102.746 20.4406 102.746 27.806C102.746 35.1714 108.74 41.162 116.108 41.162C118.897 41.162 121.565 40.3156 123.824 38.7096L132.188 50.4926C127.476 53.8408 121.912 55.612 116.108 55.612Z" fill="#42A468"/>
<path d="M40.0825 201C35.5844 201 31.1689 200.249 26.9558 198.771L31.7472 185.138C34.4155 186.075 37.2201 186.55 40.0784 186.55C53.9321 186.55 65.2042 175.283 65.2042 161.436C65.2042 147.589 53.9321 136.322 40.0784 136.322C26.2289 136.326 14.9567 147.593 14.9567 161.44C14.9567 167.364 17.0592 173.12 20.8799 177.636L9.83492 186.959C3.81679 179.837 0.5 170.775 0.5 161.44C0.5 139.625 18.257 121.876 40.0825 121.876C61.9081 121.876 79.6651 139.625 79.6651 161.44C79.6651 183.255 61.9081 201 40.0825 201Z" fill="#42A468"/>
<path d="M44.9111 103.099C27.2202 103.099 12.8295 88.715 12.8295 71.0323C12.8295 53.3496 27.2202 38.9656 44.9111 38.9656C62.602 38.9656 76.9927 53.3496 76.9927 71.0323H62.5359C62.5359 61.3177 54.6301 53.4156 44.9111 53.4156C35.192 53.4156 27.2863 61.3177 27.2863 71.0323C27.2863 80.7468 35.192 88.6489 44.9111 88.6489C48.2361 88.6489 51.4703 87.72 54.2667 85.9654L61.9535 98.2025C56.8482 101.406 50.9581 103.099 44.9111 103.099Z" fill="#42A468"/>
<path d="M134.782 178.247C124.493 173.227 118.099 163.001 118.099 151.56C118.099 135.19 131.42 121.876 147.798 121.876C164.175 121.876 177.496 135.19 177.496 151.56C177.496 162.906 171.18 173.095 161.011 178.152L154.572 165.213C159.793 162.617 163.039 157.386 163.039 151.56C163.039 143.159 156.203 136.326 147.798 136.326C139.392 136.326 132.556 143.159 132.556 151.56C132.556 157.435 135.84 162.683 141.123 165.263L134.782 178.247Z" fill="#42A468"/>
</g>
<defs>
<clipPath id="clip0_653:561">
<rect width="177" height="201" fill="white" transform="translate(0.5)"/>
</clipPath>
</defs>
</svg>
